Coordinates
version=1
nRows=13
nColumns=40
inDegrees=yes

Units are S.I. units (second, meters, Newtons, ...)
Angles are in degrees.

endheader
time	pelvis_tilt	pelvis_list	pelvis_rotation	pelvis_tx	pelvis_ty	pelvis_tz	hip_flexion_r	hip_adduction_r	hip_rotation_r	knee_angle_r	knee_angle_r_beta	ankle_angle_r	subtalar_angle_r	mtp_angle_r	hip_flexion_l	hip_adduction_l	hip_rotation_l	knee_angle_l	knee_angle_l_beta	ankle_angle_l	subtalar_angle_l	mtp_angle_l	lumbar_extension	lumbar_bending	lumbar_rotation	arm_flex_r	arm_add_r	arm_rot_r	elbow_flex_r	pro_sup_r	wrist_flex_r	wrist_dev_r	arm_flex_l	arm_add_l	arm_rot_l	elbow_flex_l	pro_sup_l	wrist_flex_l	wrist_dev_l
     27.47000000	     -3.85253966	     -4.47186116	     -1.38442997	      0.86554031	      0.93658416	      0.45643856	     31.72703717	     -2.64926556	     -6.08917246	     54.96174557	     54.96174557	      2.49699400	    -16.17496007	      2.03134148	      7.89646146	     -3.46479788	     -6.54021327	     16.15330952	     16.15330952	     14.45734895	    -10.90584737	      2.49139895	     -8.32200168	      6.72782477	      4.39233722	     -4.27154876	    -11.08363601	     -8.76311926	     22.89891139	     46.82770184	      0.00000000	      0.00000000	     19.02794608	    -12.85334537	     -5.96837467	     60.59818764	     46.78206604	      0.00000000	      0.00000000
     27.48257143	     -3.97352999	     -4.57921565	     -1.54766364	      0.86420682	      0.93631562	      0.45688176	     32.13594496	     -2.39587803	     -6.33344463	     51.71763204	     51.71763204	      2.59271129	    -15.79388944	      1.57936495	      7.30502363	     -3.59188078	     -6.77145322	     15.65691236	     15.65691236	     14.44698021	    -10.70766792	      1.73506115	     -8.37664602	      6.85542861	      3.67685070	     -5.55980476	    -11.02990470	     -9.13654122	     22.58567497	     46.87063674	      0.00000000	      0.00000000	     18.99701416	    -13.14275425	     -7.82497722	     63.90112526	     46.98909135	      0.00000000	      0.00000000
     27.49514286	     -4.06817013	     -4.67470138	     -1.69496227	      0.86284600	      0.93601359	      0.45738507	     32.36702477	     -2.11387235	     -6.54907233	     48.19292496	     48.19292496	      2.86727225	    -15.04253132	      1.67389845	      6.73505996	     -3.69637701	     -6.89524308	     15.26436486	     15.26436486	     14.66328045	    -10.55113862	      1.60178564	     -8.45037119	      7.00563627	      3.59836954	     -7.06727091	    -11.02915431	     -9.19413290	     22.07681932	     46.88478234	      0.00000000	      0.00000000	     20.02391350	    -13.33598275	     -8.23473856	     65.11673441	     47.04789596	      0.00000000	      0.00000000
     27.50771429	     -4.23382362	     -4.78607529	     -1.86048815	      0.86157301	      0.93550392	      0.45803956	     32.49917249	     -1.80230469	     -6.85436333	     44.38365245	     44.38365245	      3.11114502	    -13.92172412	      1.72633680	      6.24722710	     -3.83351302	     -7.05352848	     14.90099473	     14.90099473	     14.92035300	    -10.39027710	      1.43957054	     -8.40049637	      7.12662937	      3.54203306	     -8.54575102	    -11.03904664	     -9.28031671	     21.72023135	     46.89419679	      0.00000000	      0.00000000	     20.93407026	    -13.48024618	     -8.61122912	     66.41082864	     47.10341639	      0.00000000	      0.00000000
     27.52028571	     -4.30169118	     -4.86961846	     -2.03660447	      0.86042238	      0.93508194	      0.45875526	     32.32166004	     -1.50541439	     -7.21795186	     40.27413981	     40.27413981	      3.22666653	    -12.31765853	      1.57972649	      5.65240460	     -3.94966039	     -7.28719009	     14.56306840	     14.56306840	     15.16998874	    -10.16115570	      1.21529509	     -8.53247455	      7.20249747	      3.64696928	    -10.04622259	    -11.10847578	     -9.43588694	     21.55733548	     46.90102763	      0.00000000	      0.00000000	     21.71080991	    -13.43473664	     -9.05194647	     68.10951772	     47.17002596	      0.00000000	      0.00000000
     27.53285714	     -4.40681425	     -4.84055876	     -2.24015841	      0.85942118	      0.93432271	      0.45959892	     31.98703689	     -1.29672023	     -7.62972264	     35.90784718	     35.90784718	      2.64347721	    -10.55815727	     -0.68375722	      5.10526118	     -3.97661208	     -7.72473399	     14.25018864	     14.25018864	     15.34868424	     -9.72780584	      0.57752619	     -8.69370583	      7.13371377	      3.35425362	    -11.62894635	    -11.10382109	    -10.19867942	     22.92795653	     46.89148181	      0.00000000	      0.00000000	     21.61366996	    -13.57368947	    -10.38143370	     71.59075858	     47.34280919	      0.00000000	      0.00000000
     27.54542857	     -4.55981248	     -4.92402342	     -2.39648271	      0.85850831	      0.93358479	      0.46061139	     31.54760621	     -0.89577283	     -8.09463869	     31.49635657	     31.49635657	      2.58847018	     -8.44149083	     -0.34959017	      4.64345012	     -4.10065269	     -7.84877575	     14.01372742	     14.01372742	     15.59898449	     -9.68422534	      0.43053943	     -8.66308239	      7.21942014	      3.37772419	    -12.74503539	    -11.17897668	    -10.26985651	     22.62281982	     46.89995185	      0.00000000	      0.00000000	     22.36511996	    -13.65441225	    -10.54282546	     72.43168523	     47.37533778	      0.00000000	      0.00000000
     27.55800000	     -4.66781015	     -4.90752973	     -2.57427367	      0.85790032	      0.93268557	      0.46167466	     30.98015891	     -0.58503536	     -8.58349782	     27.24858188	     27.24858188	      2.50018209	     -6.00307647	      0.10652909	      4.09415402	     -4.11303395	     -8.03609704	     13.75868733	     13.75868733	     15.90962017	     -9.56263871	      0.22903684	     -8.61504001	      7.21187303	      3.46190704	    -13.76808311	    -11.19244492	    -10.37036621	     22.47197982	     46.90454193	      0.00000000	      0.00000000	     23.03316448	    -13.69649248	    -10.69235979	     73.44654607	     47.40972326	      0.00000000	      0.00000000
     27.57057143	     -4.75068755	     -4.93293130	     -2.73800694	      0.85749703	      0.93170591	      0.46299311	     30.27799403	     -0.21036326	     -9.24103818	     23.19249092	     23.19249092	      2.34048347	     -3.43690384	      0.80654728	      3.49028999	     -4.18619931	     -8.22028163	     13.46982114	     13.46982114	     16.21068164	     -9.41116703	      0.02942750	     -8.63443577	      7.19318195	      3.55830277	    -14.64189593	    -11.18800285	    -10.49084547	     22.43118995	     46.90723093	      0.00000000	      0.00000000	     23.53277721	    -13.68543155	    -10.78778182	     74.46734745	     47.44043585	      0.00000000	      0.00000000
     27.58314286	     -4.68794622	     -4.82053875	     -2.89050280	      0.85746567	      0.93073219	      0.46431753	     29.51755063	     -0.08819691	    -10.32605846	     19.82464562	     19.82464562	      2.39175657	     -0.30583311	      2.04369450	      2.66408291	     -4.10557092	     -8.53662520	     13.10718592	     13.10718592	     16.51966154	     -9.04025862	     -0.26687525	     -8.78090820	      7.01531738	      3.62926178	    -15.52392985	    -11.20772046	    -10.80529369	     22.76785771	     46.90852844	      0.00000000	      0.00000000	     23.83159499	    -13.72610670	    -10.89069895	     75.92149612	     47.48786087	      0.00000000	      0.00000000
     27.59571429	     -4.82869138	     -4.79719986	     -3.04397811	      0.85744066	      0.92940193	      0.46594439	     28.95995907	      0.30922505	    -10.85651483	     16.84959929	     16.84959929	      2.02020259	      1.34801351	      3.15977913	      2.14755637	     -4.13388470	     -8.66314358	     12.90763705	     12.90763705	     16.85848372	     -9.05008489	     -0.42686261	     -8.65196140	      6.95083752	      3.66325181	    -15.98807759	    -11.16512188	    -10.89890948	     22.75690889	     46.91136276	      0.00000000	      0.00000000	     24.11850849	    -13.78694250	    -10.89368987	     76.49429589	     47.50575332	      0.00000000	      0.00000000
     27.60828571	     -4.74694997	     -4.83033036	     -3.15705939	      0.85784159	      0.92829517	      0.46762397	     28.22213287	      0.64940674	    -11.77639284	     14.61994836	     14.61994836	      1.85939399	      3.15458072	      4.43564671	      1.30346675	     -4.22081381	     -8.83343643	     12.61933488	     12.61933488	     17.24186042	     -8.84426512	     -0.58169946	     -8.72074568	      6.95605713	      3.73035861	    -16.43219575	    -11.24080486	    -11.03624325	     22.79553970	     46.91605821	      0.00000000	      0.00000000	     24.31897368	    -13.81432654	    -10.81243662	     77.16245662	     47.52049579	      0.00000000	      0.00000000
     27.62085714	     -4.78205225	     -4.80132832	     -3.27803963	      0.85832047	      0.92695097	      0.46947228	     27.75282599	      0.91049745	    -12.54113076	     13.18671952	     13.18671952	      1.69923710	      4.34910064	      5.44598933	      0.61448487	     -4.25806850	     -9.01384063	     12.38356072	     12.38356072	     17.64553835	     -8.65734036	     -0.67520949	     -8.62061948	      6.87083975	      3.76408952	    -16.62675884	    -11.23511503	    -11.13964809	     22.84185822	     46.91985254	      0.00000000	      0.00000000	     24.42593460	    -13.85716498	    -10.68726293	     77.60350623	     47.52808599	      0.00000000	      0.00000000
